<svg width="1075" height="421" viewBox="0 0 1075 421" fill="none" xmlns="http://www.w3.org/2000/svg">
<path d="M2.44189 366.043C12.1113 267.225 65.3599 72.6481 200.999 84.8912C370.547 100.195 85.9658 427.259 250.513 418.076C415.06 408.894 466.347 118.122 348.541 185.022C230.735 251.921 241.536 314.885 299.527 338.497C357.518 362.108 440.067 369.104 531.093 359.922C622.119 350.74 640.624 308.764 706.143 359.922C771.662 411.08 879.693 432.943 939.71 409.769C999.727 386.594 1056.74 339.808 1056.74 301.768C1056.74 263.727 1116.76 197.702 1009.23 198.576C901.699 199.451 859.687 296.958 753.157 237.492C646.626 178.026 608.615 118.559 593.111 73.0854C577.606 27.6113 530.093 -27.4823 451.57 20.6153C373.048 68.7129 323.034 160.536 320.533 166.657" stroke="black" stroke-opacity="0.2" stroke-width="3" stroke-linecap="round" stroke-dasharray="10 10"/>
</svg>
